<?xml version="1.0" encoding="UTF-8"?>
<svg id="Layer_1" xmlns="http://www.w3.org/2000/svg" version="1.1" viewBox="0 0 64 64">
  <!-- Generator: Adobe Illustrator 29.6.1, SVG Export Plug-In . SVG Version: 2.1.1 Build 9)  -->
  <defs>
    <style>
      .st0 {
        fill: #fff;
      }

      .st1 {
        fill: #64bd6f;
      }
    </style>
  </defs>
  <path class="st1" d="M23.7,19.11v25.78c0,1.04,1.13,1.69,2.03,1.17l22.33-12.89c.9-.52.9-1.82,0-2.34l-22.33-12.89c-.9-.52-2.03.13-2.03,1.17Z"/>
  <path class="st0" d="M35.99,2.07l-17.18,9.92c-.47.27-.77.78-.77,1.33v37.37c0,.55.29,1.05.77,1.33l2.46,1.42c.47.27,1.06.27,1.53,0l23.16-13.37,13.96,8.06-27.15,15.68c-.47.27-1.06.27-1.53,0l-26.38-15.23c-.47-.27-.77-.78-.77-1.33v-30.47c0-.55.29-1.05.77-1.33L31.23.21c.47-.27,1.06-.27,1.53,0l3.22,1.86Z"/>
  <polygon class="st0" points="26.02 12.43 30.01 14.73 43.96 6.67 39.98 4.37 26.02 12.43"/>
  <polygon class="st0" points="33.99 17.03 37.98 19.34 51.94 11.28 47.95 8.97 33.99 17.03"/>
  <polygon class="st0" points="41.97 21.64 45.96 23.94 59.92 15.88 55.93 13.58 41.97 21.64"/>
  <polygon class="st0" points="41.97 21.64 45.96 23.94 59.92 15.88 55.93 13.58 41.97 21.64"/>
</svg>