<?xml version="1.0" encoding="UTF-8" standalone="no"?>
<svg
   width="478.43704"
   height="214.19528"
   viewBox="0 0 478.43703 214.19528"
   fill="none"
   version="1.1"
   id="svg3"
   sodipodi:docname="logo.svg"
   xml:space="preserve"
   inkscape:version="1.3.2 (091e20e, 2023-11-25)"
   inkscape:export-filename="logo.png"
   inkscape:export-xdpi="365.48224"
   inkscape:export-ydpi="365.48224"
   xmlns:inkscape="http://www.inkscape.org/namespaces/inkscape"
   xmlns:sodipodi="http://sodipodi.sourceforge.net/DTD/sodipodi-0.dtd"
   xmlns="http://www.w3.org/2000/svg"
   xmlns:svg="http://www.w3.org/2000/svg"><defs
     id="defs3"><linearGradient
       id="linearGradient15377"><stop
         id="stop15379"
         offset="0"
         style="stop-color:#626a19;stop-opacity:1;" /><stop
         id="stop15381"
         offset="1"
         style="stop-color:#a9b62c;stop-opacity:1;" /></linearGradient><linearGradient
       id="linearGradient10912"><stop
         style="stop-color:#7e8721;stop-opacity:1;"
         offset="0"
         id="stop10914" /><stop
         style="stop-color:#c1cf38;stop-opacity:1;"
         offset="1"
         id="stop10916" /></linearGradient><linearGradient
       id="linearGradient10019"><stop
         id="stop14490"
         offset="0"
         style="stop-color:#d5ff42;stop-opacity:1;" /><stop
         style="stop-color:#b1e11b;stop-opacity:1;"
         offset="0.5"
         id="stop2123" /><stop
         style="stop-color:#658b03;stop-opacity:1"
         offset="0.99760193"
         id="stop10023" /></linearGradient></defs><sodipodi:namedview
     id="namedview3"
     pagecolor="#ffffff"
     bordercolor="#000000"
     borderopacity="0.25"
     inkscape:showpageshadow="2"
     inkscape:pageopacity="0.0"
     inkscape:pagecheckerboard="0"
     inkscape:deskcolor="#d1d1d1"
     inkscape:zoom="2.0536422"
     inkscape:cx="238.11353"
     inkscape:cy="127.57821"
     inkscape:window-width="1568"
     inkscape:window-height="741"
     inkscape:window-x="99"
     inkscape:window-y="107"
     inkscape:window-maximized="0"
     inkscape:current-layer="svg3" /><path
     fill-rule="evenodd"
     clip-rule="evenodd"
     d="m 278.38699,194.12263 h -71.51464 l -4.46252,4.8393 h 71.53429 l 4.42318,-4.8393 z M 263.4929,75.862335 h 66.81839 l 4.30393,4.839303 h -66.52278 z m -13.52389,-14.2832 h 67.60176 l 4.32299,4.839621 h -67.32555 l -4.57985,-4.839621 z m -16.14657,-17.04539 h 68.52031 l 4.3055,4.839303 H 238.42169 Z M 218.34133,27.899751 h 69.14638 l 4.32548,4.83927 h -68.87266 z m -13.52423,-14.576832 69.44008,-0.254704 4.30584,4.839367 -69.14638,0.254662 z m -67.77653,31.210826 h 68.52027 l 4.30584,4.839303 h -68.2269 z m 29.65111,31.32859 h 66.81741 l 4.30584,4.839303 h -66.52405 z m -58.65616,-62.539416 69.44009,-0.254704 4.30584,4.839367 -69.14672,0.254662 z m 13.52394,14.576832 h 69.16603 l 4.32548,4.83927 h -68.87266 l -4.5992,-4.83927 z m -11.44933,166.222879 -4.46252,4.8393 h 71.55394 l 4.42318,-4.8393 z m 225.03474,-62.53919 -69.36204,-0.23536 -4.52116,4.83962 69.51901,0.25466 4.38325,-4.83961 z m -96.76222,0 -69.36204,-0.23536 -4.52087,4.83962 69.49873,0.25466 4.38418,-4.83961 z m 83.51111,14.57658 h -69.96753 l -4.5602,4.83961 h 70.12548 l 4.3832,-4.83961 z m -96.76129,0 h -69.94911 l -4.5602,4.83961 h 70.12547 z m 11.13628,16.63434 -4.5602,4.8393 h 70.71254 l 4.40353,-4.8393 z m -96.76222,0 -4.56021,4.8393 h 70.71255 l 4.40353,-4.8393 z m 151.83693,17.04539 h -71.20159 l -4.48216,4.83929 h 71.26058 z m -96.76222,0 h -71.20159 l -4.48186,4.83929 h 71.26028 z M 153.1871,61.579135 h 67.60053 l 4.32515,4.839621 h -67.32614 l -4.57985,-4.839621 z M 128.19422,174.84345 66.42606,106.48524 130.99288,38.127016 145.67156,53.624642 96.762218,104.62411 144.6538,157.32802 128.21387,174.84345 Z M 0,104.62411 100.34366,0 h 65.4869 L 180.90067,16.888743 197.10588,0 h 65.48694 l 81.74986,91.594979 H 278.38699 L 227.7551,38.127016 213.40908,53.311282 247.58105,91.594979 h -65.95632 l -2.1919,-2.311814 -16.24455,17.202075 14.32633,15.85031 1.78119,-1.90046 h 69.20537 l -36.44255,40.12548 12.89782,14.28288 51.10158,-54.40836 h 69.20444 l -83.6091,92.06533 h -66.8764 L 179.82422,196.0624 164.89113,212.50042 H 98.014695 Z"
     fill="white"
     id="path1"
     style="fill:#008000;stroke-width:3.17165"
     inkscape:export-filename="cctv.png"
     inkscape:export-xdpi="846.61829"
     inkscape:export-ydpi="846.61829" /><circle
     style="fill:#008000;fill-opacity:1;fill-rule:evenodd;stroke:none;stroke-width:0.131715px;stroke-linecap:butt;stroke-linejoin:miter;stroke-opacity:1"
     id="path1986"
     cx="359.50098"
     cy="196.12651"
     r="17.311083" /><path
     style="fill:#ffffff;fill-opacity:1;fill-rule:evenodd;stroke:#ffffff;stroke-width:1.3665;stroke-linecap:butt;stroke-linejoin:miter;stroke-miterlimit:4;stroke-dasharray:none;stroke-opacity:1"
     d="m 361.87693,178.39619 c -8.2412,10.46888 -17.3796,14.75466 -18.93683,15.43381 l -0.0652,0.61818 c 0,0 10.46495,-4.23263 19.62376,-15.95211 -0.33706,-0.0694 -0.62171,-0.0999 -0.62171,-0.0999 z"
     id="path6447"
     sodipodi:nodetypes="ccccc" /><path
     style="fill:#ffffff;fill-opacity:1;fill-rule:evenodd;stroke:#ffffff;stroke-width:1.35985;stroke-linecap:butt;stroke-linejoin:miter;stroke-miterlimit:4;stroke-dasharray:none;stroke-opacity:1"
     d="m 376.67045,198.25092 c -8.40393,7.33677 -14.28898,14.94345 -14.28898,14.94345 0,0 0.81057,-0.15325 0.81057,-0.15325 1.19933,-1.50638 6.28249,-7.72471 13.36785,-13.97518 z"
     id="path6449"
     sodipodi:nodetypes="ccccc" /><path
     style="font-size:19.5104px;font-family:'Apple Braille';-inkscape-font-specification:'Apple Braille';fill:#008000;stroke-width:3.44235"
     d="m 430.31128,210.88812 q -2.13803,0.56476 -4.67944,0.92782 -2.50111,0.36307 -4.47777,0.36307 -6.89816,0 -10.48843,-3.71129 -3.59027,-3.71129 -3.59027,-11.90033 v -23.96202 h -5.12319 v -6.37374 h 5.12319 v -12.94917 h 7.58394 v 12.94917 h 15.65197 v 6.37374 h -15.65197 v 20.53311 q 0,3.54992 0.16138,5.56694 0.16137,1.97666 1.12952,3.71128 0.88748,1.61361 2.4204,2.38008 1.57327,0.72611 4.76013,0.72611 1.85565,0 3.87266,-0.52442 2.01701,-0.56476 2.90448,-0.92782 h 0.40354 z m 48.12575,-44.6565 -18.23374,45.0599 h -7.62428 l -18.11272,-45.0599 h 8.22939 l 13.95767,35.86236 13.83665,-35.86236 z"
     id="text3"
     aria-label="tv" /></svg>
