<?xml version="1.0" encoding="UTF-8" standalone="no"?>
<svg
   width="112.98583"
   height="50.583523"
   viewBox="0 0 112.98583 50.583523"
   fill="none"
   version="1.1"
   id="svg3"
   sodipodi:docname="logo.svg"
   xml:space="preserve"
   inkscape:version="1.3.2 (091e20e, 2023-11-25)"
   inkscape:export-filename="logo.png"
   inkscape:export-xdpi="365.48224"
   inkscape:export-ydpi="365.48224"
   xmlns:inkscape="http://www.inkscape.org/namespaces/inkscape"
   xmlns:sodipodi="http://sodipodi.sourceforge.net/DTD/sodipodi-0.dtd"
   xmlns="http://www.w3.org/2000/svg"
   xmlns:svg="http://www.w3.org/2000/svg"><defs
     id="defs3"><linearGradient
       id="linearGradient15377"><stop
         id="stop15379"
         offset="0"
         style="stop-color:#626a19;stop-opacity:1;" /><stop
         id="stop15381"
         offset="1"
         style="stop-color:#a9b62c;stop-opacity:1;" /></linearGradient><linearGradient
       id="linearGradient10912"><stop
         style="stop-color:#7e8721;stop-opacity:1;"
         offset="0"
         id="stop10914" /><stop
         style="stop-color:#c1cf38;stop-opacity:1;"
         offset="1"
         id="stop10916" /></linearGradient><linearGradient
       id="linearGradient10019"><stop
         id="stop14490"
         offset="0"
         style="stop-color:#d5ff42;stop-opacity:1;" /><stop
         style="stop-color:#b1e11b;stop-opacity:1;"
         offset="0.5"
         id="stop2123" /><stop
         style="stop-color:#658b03;stop-opacity:1"
         offset="0.99760193"
         id="stop10023" /></linearGradient></defs><sodipodi:namedview
     id="namedview3"
     pagecolor="#ffffff"
     bordercolor="#000000"
     borderopacity="0.25"
     inkscape:showpageshadow="2"
     inkscape:pageopacity="0.0"
     inkscape:pagecheckerboard="0"
     inkscape:deskcolor="#d1d1d1"
     inkscape:zoom="11.123206"
     inkscape:cx="104.10667"
     inkscape:cy="45.04097"
     inkscape:window-width="1568"
     inkscape:window-height="741"
     inkscape:window-x="99"
     inkscape:window-y="107"
     inkscape:window-maximized="0"
     inkscape:current-layer="svg3" /><path
     fill-rule="evenodd"
     clip-rule="evenodd"
     d="M 65.74279,45.843246 H 48.85417 l -1.05385,1.14283 h 16.89326 l 1.04456,-1.14283 z M 62.22546,17.915354 h 15.77957 l 1.0164,1.142831 H 63.31167 Z m -3.19375,-3.373065 h 15.96457 l 1.0209,1.142906 H 60.11784 L 59.03628,14.542289 Z M 55.2186,10.516916 h 16.18149 l 1.01677,1.142831 H 56.30474 Z M 51.56264,6.5886968 h 16.32934 l 1.02149,1.142823 h -16.2647 z m -3.19383,-3.442408 16.3987,-0.06015 1.01685,1.142846 -16.32934,0.06014 z M 32.36297,10.516916 h 16.18148 l 1.01685,1.142831 H 33.4491 Z m 7.00229,7.398438 H 55.1446 l 1.01685,1.142831 H 40.45139 Z M 25.51325,3.1462888 l 16.3987,-0.06015 1.01685,1.142846 -16.32942,0.06014 z m 3.19376,3.442408 h 16.33398 l 1.02149,1.142823 h -16.2647 l -1.08613,-1.142823 z m -2.70383,39.2545492 -1.05385,1.14283 h 16.8979 l 1.04456,-1.14283 z m 53.14333,-14.769013 -16.38027,-0.05558 -1.0677,1.142905 16.41734,0.06014 1.03513,-1.142905 z m -22.85099,0 -16.38027,-0.05558 -1.06763,1.142905 16.41255,0.06014 1.03535,-1.142905 z m 19.72166,3.442348 H 59.49392 L 58.417,35.659486 h 16.56056 l 1.03512,-1.142905 z m -22.85077,0 H 36.6475 l -1.07692,1.142905 h 16.56056 z m 2.6299,3.928302 -1.07692,1.14283 h 16.6992 l 1.03992,-1.14283 z m -22.85099,0 -1.07692,1.14283 h 16.6992 l 1.03992,-1.14283 z m 35.85722,4.025372 H 51.98785 l -1.05849,1.142831 h 16.82862 z m -22.85099,0 H 29.13686 l -1.05842,1.142831 H 44.90699 Z M 36.17607,14.542289 h 15.96428 l 1.02141,1.142906 H 37.26228 L 36.18072,14.542289 Z M 30.27385,41.290349 15.68692,25.147139 30.93477,9.0039278 34.40123,12.663787 22.85099,24.707623 34.16088,37.153974 30.27849,41.290349 Z M 0,24.707623 23.69677,0 H 39.1619 L 42.7208,3.9883798 46.54776,0 H 62.0129 L 81.31863,21.630714 H 65.74279 L 53.78576,9.0039278 l -3.3879,3.5858572 8.06992,9.040929 H 42.89179 l -0.51763,-0.545949 -3.83625,4.062374 3.38325,3.743148 0.42064,-0.448804 h 16.34327 l -8.60613,9.475876 3.0459,3.37299 12.06795,-12.848866 H 81.53584 L 61.79104,50.183275 H 45.99777 l -3.53118,-3.881939 -3.52654,3.881939 H 23.14677 Z"
     fill="white"
     id="path1"
     style="fill:#008000;stroke-width:0.749004"
     inkscape:export-filename="cctv.png"
     inkscape:export-xdpi="846.61829"
     inkscape:export-ydpi="846.61829" /><circle
     style="fill:#008000;fill-opacity:1;fill-rule:evenodd;stroke:none;stroke-width:0.0311052px;stroke-linecap:butt;stroke-linejoin:miter;stroke-opacity:1"
     id="path1986"
     cx="84.898354"
     cy="46.316471"
     r="4.0881181" /><path
     style="fill:#ffffff;fill-opacity:1;fill-rule:evenodd;stroke:#ffffff;stroke-width:0.322707;stroke-linecap:butt;stroke-linejoin:miter;stroke-miterlimit:4;stroke-dasharray:none;stroke-opacity:1"
     d="m 85.45945,42.129351 c -1.94621,2.47229 -4.1043,3.484404 -4.47205,3.64479 l -0.0154,0.145986 c 0,0 2.47136,-0.999562 4.63427,-3.76719 -0.0796,-0.0164 -0.14682,-0.02358 -0.14682,-0.02358 z"
     id="path6447"
     sodipodi:nodetypes="ccccc" /><path
     style="fill:#ffffff;fill-opacity:1;fill-rule:evenodd;stroke:#ffffff;stroke-width:0.321137;stroke-linecap:butt;stroke-linejoin:miter;stroke-miterlimit:4;stroke-dasharray:none;stroke-opacity:1"
     d="m 88.95303,46.818167 c -1.98464,1.732623 -3.37443,3.528987 -3.37443,3.528987 0,0 0.19142,-0.03619 0.19142,-0.03619 0.28323,-0.355741 1.48365,-1.824238 3.1569,-3.300325 z"
     id="path6449"
     sodipodi:nodetypes="ccccc" /><path
     style="font-size:19.5104px;font-family:'Apple Braille';-inkscape-font-specification:'Apple Braille';fill:#008000;stroke-width:0.812933"
     d="m 101.62064,49.80252 q -0.50491,0.133371 -1.10508,0.219111 -0.590651,0.08574 -1.057452,0.08574 -1.629042,0 -2.476906,-0.876444 -0.847865,-0.876444 -0.847865,-2.810336 v -5.658779 h -1.209873 v -1.505197 h 1.209873 v -3.058026 h 1.790994 v 3.058026 h 3.696309 v 1.505197 h -3.696309 v 4.849021 q 0,0.838337 0.03811,1.314666 0.03811,0.466801 0.266743,0.876443 0.209585,0.381063 0.571594,0.562068 0.371536,0.171478 1.124134,0.171478 0.438221,0 0.914551,-0.123846 0.47633,-0.133372 0.68591,-0.219111 h 0.0953 z m 11.36519,-10.545906 -4.30601,10.641171 h -1.80052 l -4.27743,-10.641171 h 1.94342 l 3.29619,8.469115 3.26761,-8.469115 z"
     id="text3"
     aria-label="tv" /></svg>
