<?xml version="1.0" encoding="UTF-8"?>
<svg id="Layer_3" xmlns="http://www.w3.org/2000/svg" version="1.1" viewBox="0 0 646.77 110.63">
  <!-- Generator: Adobe Illustrator 29.6.1, SVG Export Plug-In . SVG Version: 2.1.1 Build 9)  -->
  <defs>
    <style>
      .st0 {
        fill: #fff;
      }

      .st1 {
        fill: #65be6f;
      }
    </style>
  </defs>
  <path class="st1" d="M33.92,33.03v44.56c0,1.8,1.95,2.92,3.51,2.02l38.59-22.28c1.56-.9,1.56-3.15,0-4.05l-38.59-22.28c-1.56-.9-3.51.22-3.51,2.02h0Z"/>
  <path class="st0" d="M55.15,3.57l-29.7,17.15c-.82.47-1.32,1.35-1.32,2.29v64.6c0,.95.51,1.82,1.32,2.29l4.24,2.45c.82.47,1.83.47,2.65,0l40.04-23.12,24.13,13.93-46.93,27.1c-.82.47-1.83.47-2.65,0L1.32,83.94c-.81-.47-1.32-1.35-1.32-2.29V28.98c0-.95.51-1.82,1.32-2.29L46.93.36c.82-.47,1.83-.47,2.65,0l5.57,3.22h0Z"/>
  <polygon class="st0" points="37.92 21.48 44.81 25.46 68.94 11.53 62.05 7.55 37.92 21.48"/>
  <polygon class="st0" points="51.7 29.44 58.6 33.42 82.73 19.49 75.83 15.51 51.7 29.44"/>
  <polygon class="st0" points="65.49 37.4 72.39 41.38 96.52 27.45 89.62 23.47 65.49 37.4"/>
  <polygon class="st0" points="65.49 37.4 72.39 41.38 96.52 27.45 89.62 23.47 65.49 37.4"/>
  <g>
    <path class="st0" d="M154.04,76.95c-4.65,3.37-9.97,5.06-15.96,5.06s-10.89-1.96-14.69-5.87-5.7-8.81-5.7-14.69c0-5.02,1.27-9.68,3.81-13.96,2.54-4.29,5.99-7.69,10.34-10.22,4.36-2.52,9.09-3.79,14.19-3.79,5.8,0,10.55,1.76,14.25,5.29s5.67,7.96,5.89,13.32h-11.82c-.67-2.39-1.84-4.23-3.52-5.54-1.68-1.3-3.78-1.96-6.31-1.96-3.94,0-7.4,1.65-10.36,4.95-2.97,3.3-4.45,7.05-4.45,11.24,0,3.02.9,5.47,2.69,7.33,1.79,1.86,4.15,2.79,7.1,2.79,2.61,0,5.02-.69,7.24-2.08s4.11-3.36,5.66-5.91h11.95c-2.22,5.99-5.65,10.68-10.3,14.05h0Z"/>
    <path class="st0" d="M211.23,34.73h9.2l-9.2,46.03h-8.78l-.29-4.29c-4.72,3.69-10.05,5.54-15.98,5.54s-10.98-1.94-14.8-5.83c-3.81-3.88-5.72-8.78-5.72-14.69,0-5.02,1.23-9.68,3.68-13.98,2.46-4.3,5.83-7.71,10.11-10.24,4.29-2.52,9-3.79,14.13-3.79,3.11,0,5.94.6,8.51,1.79,2.57,1.19,4.72,2.87,6.47,5.04l2.66-5.58h0ZM188.38,70.81c4.16,0,7.8-1.61,10.91-4.83s4.66-6.95,4.66-11.2c0-3.05-.99-5.51-2.96-7.39-1.97-1.87-4.58-2.81-7.82-2.81-4.13,0-7.74,1.61-10.82,4.83-3.08,3.22-4.62,6.97-4.62,11.24,0,3.05.97,5.51,2.91,7.37s4.52,2.79,7.74,2.79h0Z"/>
    <path class="st0" d="M280.28,33.48c3.91,0,7.05,1.3,9.41,3.89,2.36,2.59,3.54,5.97,3.54,10.13-.03,1.19-.21,2.74-.54,4.64-.33,1.9-1.22,6.49-2.66,13.76-.36,1.8-.65,3.26-.87,4.37s-.53,2.66-.94,4.66c-.4,2-.78,3.94-1.14,5.83h-11.9c.8-3.97,1.78-8.77,2.91-14.4,1.3-6.33,2.1-10.29,2.39-11.9s.44-2.83.44-3.66c0-2.05-.5-3.62-1.5-4.7s-2.46-1.62-4.37-1.62c-2.75,0-5.15.99-7.2,2.98-2.05,1.98-3.47,4.72-4.25,8.22-.08.47-.69,3.52-1.81,9.14-1.12,5.62-2.2,10.94-3.23,15.96h-11.57c.86-4.25,1.87-9.28,3.04-15.11,1.22-6.1,1.97-9.91,2.25-11.4.28-1.5.42-2.65.42-3.45,0-2-.48-3.55-1.44-4.66s-2.38-1.66-4.27-1.66c-2.8,0-5.24.99-7.3,2.98-2.07,1.98-3.49,4.71-4.27,8.18l-4.99,25.14h-11.86l9.2-46.03h8.32l.92,5.2c2-2.03,4.32-3.61,6.97-4.75s5.45-1.71,8.39-1.71c2.77,0,5.17.66,7.2,1.98,2.02,1.32,3.51,3.13,4.45,5.43,1.97-2.3,4.37-4.11,7.2-5.43,2.83-1.32,5.85-1.98,9.07-1.98v-.03Z"/>
    <path class="st0" d="M327.22,33.48c6.02,0,10.93,1.94,14.73,5.83,3.8,3.89,5.7,8.8,5.7,14.73,0,5.05-1.22,9.71-3.66,13.98-2.44,4.27-5.81,7.67-10.09,10.2-4.29,2.53-9.01,3.79-14.17,3.79s-9.89-1.71-13.44-5.12l-4.08,20.44h-11.86l12.53-62.6h7.87l.96,4.37c4.77-3.75,9.95-5.62,15.52-5.62h-.01ZM320.02,70.81c4.19,0,7.83-1.6,10.91-4.79,3.08-3.19,4.62-6.95,4.62-11.28,0-3.05-.97-5.51-2.91-7.37-1.94-1.86-4.52-2.79-7.74-2.79-4.19,0-7.83,1.63-10.93,4.89-3.09,3.26-4.64,7.04-4.64,11.34,0,3.02.98,5.45,2.93,7.26,1.96,1.82,4.54,2.73,7.76,2.73h0Z"/>
    <path class="st0" d="M395.49,61.2h-35.71v.58c0,3.14.87,5.53,2.6,7.18,1.73,1.65,4.22,2.48,7.47,2.48,2.3,0,4.46-.5,6.47-1.5s3.67-2.39,4.97-4.16h12.74c-2.66,5.16-6.22,9.16-10.65,11.99-4.44,2.83-9.42,4.25-14.94,4.25-5.86,0-10.64-1.94-14.36-5.83-3.72-3.88-5.58-8.74-5.58-14.57,0-5.08,1.17-9.76,3.52-14.05,2.34-4.29,5.65-7.71,9.91-10.26s9.01-3.83,14.25-3.83c3.94,0,7.48.91,10.61,2.73,3.14,1.82,5.55,4.27,7.24,7.35,1.69,3.08,2.54,6.49,2.54,10.24.03,2.3-.33,4.77-1.08,7.41h0ZM375.31,43.64c-3,0-5.68.84-8.03,2.52-2.36,1.68-4.19,3.91-5.49,6.68h23.64c-.28-2.97-1.29-5.24-3.04-6.83-1.75-1.58-4.11-2.37-7.08-2.37Z"/>
    <path class="st0" d="M412.31,82.01c-4.91,0-8.93-1.23-12.05-3.68s-4.68-5.72-4.68-9.8c0-.94.08-1.89.25-2.83h11.45c-.08.42-.12.82-.12,1.21,0,1.67.65,2.96,1.93,3.87,1.29.92,2.96,1.37,5.02,1.37,2.22,0,4.14-.52,5.76-1.56s2.43-2.46,2.43-4.27c0-.58-.16-1.11-.48-1.58s-.69-.85-1.12-1.14-1.07-.57-1.91-.83c-.85-.26-1.59-.46-2.23-.6s-1.53-.3-2.66-.5c-1.19-.22-2.13-.41-2.81-.56s-1.58-.39-2.71-.71c-1.12-.32-2.02-.64-2.68-.96-.67-.32-1.42-.76-2.25-1.33-.83-.57-1.47-1.19-1.91-1.85-.44-.67-.83-1.48-1.14-2.43-.32-.96-.48-2-.48-3.14,0-5.33,1.98-9.52,5.93-12.59,3.95-3.07,8.97-4.6,15.05-4.6,4.88,0,8.79,1.19,11.72,3.58s4.39,5.44,4.39,9.16c0,.78-.08,1.61-.25,2.5h-11.11c0-.08.01-.2.04-.35.03-.15.05-.29.06-.42.01-.13.02-.24.02-.35,0-1.5-.56-2.64-1.69-3.43-1.12-.79-2.7-1.19-4.72-1.19-2.25,0-4.1.51-5.56,1.52-1.46,1.01-2.19,2.31-2.19,3.89,0,.58.16,1.1.48,1.54.32.44.7.81,1.15,1.1.44.29,1.09.57,1.93.83.85.26,1.59.46,2.23.58s1.53.3,2.66.52c1.05.19,1.88.35,2.48.48s1.4.31,2.41.56,1.82.51,2.43.77c.61.26,1.32.6,2.14,1s1.47.86,1.96,1.37c.48.51.96,1.1,1.44,1.75.47.65.81,1.41,1.02,2.27s.31,1.8.31,2.83c0,5.61-2.06,10.01-6.18,13.21s-9.37,4.81-15.75,4.81v-.02Z"/>
    <path class="st0" d="M470.78,45.38h-13.11c-2.36,11.68-3.54,17.94-3.54,18.77,0,1.83.56,3.23,1.69,4.2,1.12.97,2.75,1.46,4.89,1.46h5.33l-2.21,10.99h-6.7c-4.75,0-8.46-1.23-11.13-3.68s-4.02-5.82-4.02-10.09c0-1.14.16-2.63.48-4.47s1.17-6.19,2.56-13.05c.36-1.78.64-3.15.83-4.12h-8.49l.5-2.5,22.14-20.14h2.29l-2.41,11.99h13.03l-2.12,10.65h-.01Z"/>
    <path class="st0" d="M500.74,34.48h4.08l-2.25,11.2h-5.33c-3.41,0-6.08.8-8.01,2.39-1.93,1.6-3.31,4.14-4.14,7.64l-5.04,25.06h-11.86l9.2-46.03h7.7l.87,5.37c4.02-3.75,8.95-5.62,14.78-5.62h0Z"/>
    <path class="st0" d="M546.33,61.2h-35.71v.58c0,3.14.87,5.53,2.6,7.18,1.73,1.65,4.22,2.48,7.47,2.48,2.3,0,4.46-.5,6.47-1.5,2.01-1,3.67-2.39,4.97-4.16h12.74c-2.66,5.16-6.22,9.16-10.65,11.99-4.44,2.83-9.42,4.25-14.94,4.25-5.86,0-10.64-1.94-14.36-5.83-3.72-3.88-5.58-8.74-5.58-14.57,0-5.08,1.17-9.76,3.52-14.05,2.34-4.29,5.65-7.71,9.91-10.26,4.26-2.55,9.01-3.83,14.25-3.83,3.94,0,7.48.91,10.61,2.73,3.14,1.82,5.55,4.27,7.24,7.35,1.69,3.08,2.54,6.49,2.54,10.24.03,2.3-.33,4.77-1.08,7.41h0ZM526.14,43.64c-3,0-5.68.84-8.03,2.52-2.36,1.68-4.19,3.91-5.49,6.68h23.64c-.28-2.97-1.29-5.24-3.04-6.83-1.75-1.58-4.11-2.37-7.08-2.37Z"/>
    <path class="st1" d="M546.26,80.76l2.54-12.82h12.61l-2.54,12.82h-12.61Z"/>
    <path class="st1" d="M596.85,45.38h-13.11c-2.36,11.68-3.54,17.94-3.54,18.77,0,1.83.56,3.23,1.69,4.2,1.12.97,2.75,1.46,4.89,1.46h5.33l-2.21,10.99h-6.7c-4.75,0-8.46-1.23-11.13-3.68s-4.02-5.82-4.02-10.09c0-1.14.16-2.63.48-4.47s1.17-6.19,2.56-13.05c.36-1.78.64-3.15.83-4.12h-8.49l.5-2.5,22.14-20.14h2.29l-2.41,11.99h13.03l-2.12,10.65h-.01Z"/>
    <path class="st1" d="M634.5,34.73h12.28l-27.59,46.03h-10.95l-9.66-46.03h12.11l5.54,31.59s18.27-31.59,18.27-31.59Z"/>
  </g>
</svg>